<?xml version="1.0" encoding="utf-8"?>
<!-- Generator: Adobe Illustrator 16.0.4, SVG Export Plug-In . SVG Version: 6.00 Build 0)  -->
<!DOCTYPE svg PUBLIC "-//W3C//DTD SVG 1.1//EN" "http://www.w3.org/Graphics/SVG/1.1/DTD/svg11.dtd">
<svg version="1.1" xmlns="http://www.w3.org/2000/svg" xmlns:xlink="http://www.w3.org/1999/xlink" x="0px" y="0px" width="800px"
	 height="800px" viewBox="0 0 800 800" enable-background="new 0 0 800 800" xml:space="preserve">
<g id="background">
</g>
<g id="object">
	<g>
		<g>
			<path fill-rule="evenodd" clip-rule="evenodd" fill="#22304E" d="M153.958,405.708H527.91c7.644,0,13.897,6.252,13.897,13.896
				v236.246c0,7.645-6.254,13.896-13.897,13.896H153.958c-7.644,0-13.896-6.252-13.896-13.896V419.604
				C140.062,411.96,146.314,405.708,153.958,405.708z"/>
			<polygon fill-rule="evenodd" clip-rule="evenodd" fill="#F4F4F4" points="160.905,433.276 520.96,433.276 520.96,626.571 
				160.905,639.403 			"/>
			<circle fill-rule="evenodd" clip-rule="evenodd" fill="#F1CB15" cx="340.935" cy="419.984" r="5.053"/>
			<path fill-rule="evenodd" clip-rule="evenodd" fill="#F1CB15" d="M340.933,662.861c4.534,0,8.21-3.676,8.21-8.211
				s-3.677-8.21-8.21-8.21c-4.539,0-8.21,3.675-8.21,8.21S336.394,662.861,340.933,662.861z"/>
			<polygon fill-rule="evenodd" clip-rule="evenodd" fill="#DBDBDB" points="140.062,669.747 541.808,669.747 611.584,699.433 
				70.285,699.433 			"/>
			<path fill-rule="evenodd" clip-rule="evenodd" fill="#C7C7C7" d="M70.285,699.433h541.299v7.794
				c0,5.521-4.521,10.042-10.045,10.042H80.329c-5.523,0-10.044-4.519-10.044-10.042V699.433z"/>
			<rect x="286.264" y="704.922" fill-rule="evenodd" clip-rule="evenodd" fill="#A5A5A5" width="109.339" height="6.971"/>
			<polygon fill-rule="evenodd" clip-rule="evenodd" fill="#FFFFFF" points="160.905,639.403 520.96,639.403 520.96,433.276 			"/>
		</g>
		<g>
			<path fill="#F1CB15" d="M583.58,258.449l10.109,106.015l151.456-14.445l-10.114-106.013L583.58,258.449z M730.949,254.583
				l-44.622,46.283l52.807,39.54l0.48,5.05l-58.473-39.207l-15.093,15.653l-17.78-12.519l-50.007,49.552l-0.482-5.049l44.375-48.809
				l-52.559-37.015l-0.482-5.048l75.494,43.741l65.859-57.221L730.949,254.583z"/>
			<polygon fill="#FFFFFF" points="730.949,254.583 686.327,300.866 739.134,340.406 739.614,345.456 681.142,306.249 
				666.049,321.902 648.269,309.383 598.262,358.936 597.779,353.887 642.154,305.078 589.596,268.063 589.113,263.015 
				664.607,306.756 730.467,249.535 			"/>
		</g>
		<g>
			<path fill="#F05E22" d="M445.035,442.824l33.035,42.01l60.015-47.193l-33.036-42.009L445.035,442.824z M506.194,401.206
				l-6.275,31.645l33.019,2.363l1.573,2l-35.322-0.684l-2.122,10.704l-10.903-0.461l-7.666,34.487l-1.572-2.001l5.49-32.645
				l-32.232-1.363l-1.573-2.001l43.737-2.019l12.274-42.027L506.194,401.206z"/>
			<polygon fill="#FFFFFF" points="506.194,401.206 499.919,432.851 532.938,435.214 534.511,437.214 499.188,436.53 
				497.066,447.234 486.163,446.773 478.497,481.261 476.925,479.26 482.415,446.615 450.183,445.252 448.609,443.251 
				492.347,441.232 504.621,399.205 			"/>
		</g>
		<g>
			<path fill="#F05E22" d="M674.502,187.093l-34.038,49.45l70.644,48.627l34.038-49.45L674.502,187.093z M739.55,238.809
				l-36.038,3.826l8.482,36.206l-1.62,2.354l-11.053-38.116l-12.189,1.295l-3.144-11.849l-39.549,3.286l1.621-2.355l36.847-5.004
				l-9.291-35.028l1.621-2.355l16.758,46.241l49.176-0.856L739.55,238.809z"/>
			<polygon fill="#FFFFFF" points="739.55,238.809 703.512,242.634 711.994,278.84 710.374,281.195 699.321,243.079 
				687.132,244.374 683.988,232.525 644.439,235.811 646.061,233.456 682.907,228.452 673.616,193.424 675.237,191.069 
				691.995,237.31 741.171,236.454 			"/>
		</g>
		<g>
			<path fill="#F05E22" d="M346.262,166.902l38.953,77.325l110.465-55.646l-38.952-77.325L346.262,166.902z M456.755,120.475
				l-20.139,48.231l51.671,14.366l1.855,3.682l-55.867-12.439l-6.811,16.315l-17.166-4.237l-23.256,52.297l-1.855-3.682
				l19.21-50.071l-50.743-12.526l-1.854-3.682l70.098,10.854l33.002-62.79L456.755,120.475z"/>
			<polygon fill="#FFFFFF" points="456.755,120.475 436.616,168.707 488.287,183.072 490.143,186.754 434.275,174.315 
				427.465,190.63 410.299,186.393 387.043,238.69 385.188,235.008 404.397,184.937 353.654,172.41 351.801,168.729 
				421.898,179.583 454.9,116.792 			"/>
		</g>
		<g>
			<path fill="#018C8B" d="M388.871,341.994v44.941h64.202v-44.941H388.871z M450.934,346.273l-20.599,17.656l20.599,18.726v2.141
				l-22.994-18.812l-6.967,5.972l-6.969-5.972l-22.992,18.812v-2.141l20.597-18.726l-20.597-17.656v-2.14l29.961,21.4l29.961-21.4
				V346.273z"/>
			<polygon fill="#FFFFFF" points="450.934,346.273 430.335,363.929 450.934,382.655 450.934,384.795 427.939,365.983 
				420.973,371.955 414.004,365.983 391.012,384.795 391.012,382.655 411.608,363.929 391.012,346.273 391.012,344.133 
				420.973,365.534 450.934,344.133 			"/>
		</g>
		<g>
			<path fill="#018C8B" d="M308.834,530.099v44.941h64.202v-44.941H308.834z M370.896,534.379l-20.599,17.655l20.599,18.726v2.141
				l-22.994-18.812l-6.967,5.972l-6.969-5.972L310.975,572.9v-2.141l20.597-18.726l-20.597-17.655v-2.141l29.961,21.4l29.961-21.4
				V534.379z"/>
			<polygon fill="#FFFFFF" points="370.896,534.379 350.298,552.034 370.896,570.76 370.896,572.9 347.902,554.088 340.936,560.06 
				333.967,554.088 310.975,572.9 310.975,570.76 331.571,552.034 310.975,534.379 310.975,532.238 340.936,553.639 
				370.896,532.238 			"/>
		</g>
		<g>
			<path fill="#018C8B" d="M576.646,269.843l-81.98,75.886l108.408,117.116l81.98-75.885L576.646,269.843z M673.633,390.281
				l-66.988-7.761l0.624,69.193l-3.905,3.614l-4.508-73.71l-22.658-2.625l-0.872-22.794l-73.142-10.178l3.903-3.614l68.939,5.955
				l-2.573-67.387l3.904-3.614l11.553,90.791l89.627,18.516L673.633,390.281z"/>
			<polygon fill="#FFFFFF" points="673.633,390.281 606.645,382.52 607.269,451.713 603.363,455.327 598.855,381.617 
				576.197,378.992 575.325,356.198 502.184,346.02 506.087,342.406 575.026,348.36 572.453,280.974 576.357,277.36 587.91,368.151 
				677.537,386.667 			"/>
		</g>
		<g>
			<path fill="#018C8B" d="M508.392,136.918l35.116,92.471l132.103-50.166l-35.116-92.471L508.392,136.918z M639.434,97.231
				l-28.586,52.424l57.014,22.433l1.673,4.405l-62.011-20.743l-9.669,17.731l-19.003-6.843l-32.612,56.674l-1.672-4.403
				l27.75-54.625l-56.178-20.234l-1.673-4.404l78.371,20.624l44.924-67.444L639.434,97.231z"/>
			<polygon fill="#FFFFFF" points="639.434,97.231 610.848,149.655 667.861,172.088 669.534,176.493 607.523,155.75 
				597.854,173.482 578.852,166.639 546.239,223.313 544.567,218.91 572.317,164.286 516.14,144.051 514.467,139.647 
				592.838,160.271 637.762,92.827 			"/>
		</g>
		<g>
			<path fill="#F1CB15" d="M445.655,237.438l-28.95,23.451l33.502,41.358l28.95-23.451L445.655,237.438z M475.283,279.651
				l-22.122-4.056l-1.314,23.04l-1.379,1.117l0.121-24.629l-7.482-1.372l0.211-7.605l-24.117-4.996l1.379-1.117l22.811,3.498
				l0.626-22.482l1.378-1.116l1.849,30.468l29.42,8.133L475.283,279.651z"/>
			<polygon fill="#FFFFFF" points="475.283,279.651 453.161,275.595 451.847,298.635 450.468,299.752 450.589,275.123 
				443.106,273.751 443.317,266.146 419.2,261.151 420.579,260.034 443.39,263.532 444.016,241.049 445.394,239.933 
				447.242,270.401 476.662,278.534 			"/>
		</g>
		<g>
			<path fill="#F1CB15" d="M515.255,27.073l-33.631,32.512l46.445,48.044L561.7,75.118L515.255,27.073z M556.949,76.612
				l-28.113-2.642l0.888,28.96l-1.602,1.549l-2.556-30.816l-9.51-0.894l-0.571-9.534l-30.711-3.597l1.602-1.548l28.913,1.867
				l-1.688-28.186l1.601-1.548l5.66,37.902l37.688,6.939L556.949,76.612z"/>
			<polygon fill="#FFFFFF" points="556.949,76.612 528.836,73.971 529.724,102.931 528.122,104.48 525.566,73.664 516.057,72.77 
				515.485,63.235 484.774,59.639 486.376,58.09 515.289,59.957 513.602,31.771 515.202,30.223 520.862,68.125 558.551,75.064 			
				"/>
		</g>
		<g>
			<path fill="#F1CB15" d="M660.235,374.818l-48.812,47.186l67.41,69.731l48.812-47.187L660.235,374.818z M720.75,446.719
				l-40.804-3.834l1.289,42.033l-2.325,2.248l-3.709-44.727l-13.802-1.298l-0.829-13.838l-44.574-5.221l2.325-2.247l41.964,2.71
				l-2.449-40.909l2.323-2.247l8.215,55.01l54.7,10.072L720.75,446.719z"/>
			<polygon fill="#FFFFFF" points="720.75,446.719 679.946,442.885 681.235,484.918 678.91,487.166 675.201,442.439 
				661.399,441.142 660.57,427.304 615.996,422.083 618.321,419.836 660.285,422.546 657.836,381.637 660.159,379.39 668.374,434.4 
				723.074,444.473 			"/>
		</g>
		<g>
			<path fill="#F1CB15" d="M253.179,532.238l-11.79,51.06l72.944,16.841l11.789-51.06L253.179,532.238z M322.569,553.38
				l-28.034,14.656l18.491,26.68l-0.562,2.432l-21.189-27.406l-9.483,4.957l-6.35-8.612l-31.058,15.343l0.562-2.432l28.313-15.873
				l-18.77-25.463l0.561-2.431l28.427,32.173l39.653-16.454L322.569,553.38z"/>
			<polygon fill="#FFFFFF" points="322.569,553.38 294.535,568.036 313.025,594.716 312.464,597.147 291.275,569.741 
				281.792,574.698 275.442,566.086 244.384,581.429 244.946,578.997 273.259,563.124 254.489,537.661 255.05,535.23 
				283.477,567.403 323.13,550.949 			"/>
		</g>
		<g>
			<path fill="#F1CB15" d="M424.55,467.672l-20.673,48.153l68.793,29.532l20.671-48.153L424.55,467.672z M489.081,500.806
				l-30.193,9.442l13.458,29.54l-0.985,2.293l-15.983-30.734l-10.212,3.193l-4.719-9.604l-33.29,9.581l0.984-2.293l30.683-10.591
				l-13.947-28.392l0.983-2.293l22.261,36.712l41.944-9.148L489.081,500.806z"/>
			<polygon fill="#FFFFFF" points="489.081,500.806 458.888,510.248 472.346,539.788 471.36,542.081 455.377,511.347 
				445.165,514.54 440.446,504.937 407.156,514.518 408.141,512.225 438.823,501.634 424.876,473.242 425.859,470.949 
				448.12,507.661 490.064,498.513 			"/>
		</g>
		<g>
			<path fill="#D82534" d="M497.094,230.971v76.927H606.99v-76.927H497.094z M603.326,238.297l-35.259,30.222l35.259,32.053v3.664
				l-39.358-32.202l-11.926,10.222l-11.927-10.222l-39.358,32.202v-3.664l35.258-32.053l-35.258-30.222v-3.663l51.285,36.631
				l51.284-36.631V238.297z"/>
			<polygon fill="#FFFFFF" points="603.326,238.297 568.067,268.519 603.326,300.572 603.326,304.235 563.968,272.034 
				552.042,282.256 540.115,272.034 500.757,304.235 500.757,300.572 536.015,268.519 500.757,238.297 500.757,234.634 
				552.042,271.265 603.326,234.634 			"/>
		</g>
		<g>
			<path fill="#D82534" d="M537.162,476.248l-15.5,61.021l87.173,22.143l15.5-61.021L537.162,476.248z M619.953,503.464
				l-34.059,16.869l21.511,32.529l-0.738,2.905l-24.732-33.474L570.416,528l-7.401-10.512l-37.708,17.613l0.737-2.905l34.426-18.321
				l-21.878-31.077l0.738-2.906l33.3,39.392l48.061-18.725L619.953,503.464z"/>
			<polygon fill="#FFFFFF" points="619.953,503.464 585.895,520.333 607.405,552.862 606.667,555.768 581.935,522.294 570.416,528 
				563.015,517.488 525.307,535.102 526.044,532.196 560.47,513.875 538.592,482.798 539.33,479.892 572.63,519.283 620.69,500.559 
							"/>
		</g>
		<g>
			<path fill="#D82534" d="M321.932,502.034l30.529,47.016l67.166-43.612l-30.529-47.017L321.932,502.034z M389.767,464.352
				l-9.556,32.466l34.271,5.597l1.453,2.237l-36.834-4.061l-3.232,10.98l-11.347-1.515l-11.275,35.301l-1.454-2.239l8.828-33.582
				l-33.542-4.479l-1.454-2.239l45.882,2.036l16.806-42.741L389.767,464.352z"/>
			<polygon fill="#FFFFFF" points="389.767,464.352 380.211,496.817 414.481,502.414 415.935,504.651 379.1,500.591 
				375.868,511.571 364.521,510.057 353.247,545.357 351.793,543.118 360.621,509.536 327.079,505.058 325.625,502.818 
				371.507,504.854 388.312,462.113 			"/>
		</g>
		<g>
			<path fill="#D82534" d="M726.824,107.629l-34.02,24.29l34.699,48.6l34.02-24.29L726.824,107.629z M757.128,156.922l-24.5-6.05
				l-3.041,25.714l-1.619,1.156l1.812-27.574l-8.286-2.045l0.755-8.503l-26.668-7.238l1.621-1.156l25.307,5.471l2.231-25.135
				l1.621-1.156l-0.007,34.247l32.393,11.112L757.128,156.922z"/>
			<polygon fill="#FFFFFF" points="757.128,156.922 732.628,150.872 729.587,176.586 727.968,177.742 729.78,150.168 
				721.494,148.123 722.249,139.62 695.581,132.382 697.202,131.226 722.509,136.697 724.74,111.562 726.361,110.406 
				726.354,144.653 758.747,155.765 			"/>
		</g>
		<g>
			<path fill="#D82534" d="M737.073,367.123L709.251,367l-0.177,39.747l27.822,0.123L737.073,367.123z M734.253,405.534
				l-10.874-12.802l-11.649,12.701l-1.324-0.006l11.71-14.184l-3.679-4.329l3.717-4.297l-11.584-14.287l1.325,0.006l11.536,12.803
				l10.987-12.704l1.324,0.006l-13.33,18.49l13.166,18.606L734.253,405.534z"/>
			<polygon fill="#FFFFFF" points="734.253,405.534 723.379,392.732 711.729,405.434 710.405,405.428 722.115,391.244 
				718.437,386.915 722.153,382.618 710.569,368.331 711.895,368.337 723.431,381.141 734.418,368.437 735.742,368.442 
				722.412,386.933 735.578,405.539 			"/>
		</g>
		<circle fill="#F1CB15" cx="326.123" cy="368.331" r="10.5"/>
		<circle fill="#F1CB15" cx="768.183" cy="384.795" r="9.262"/>
		<circle fill="#F1CB15" cx="709.074" cy="559.412" r="10.5"/>
		<circle fill="#F1CB15" cx="685.055" cy="86.752" r="10.5"/>
		<circle fill="#D82534" cx="583.58" cy="49" r="10.5"/>
		<circle fill="#D82534" cx="761.523" cy="260.035" r="10.5"/>
		<circle fill="#D82534" cx="739.614" cy="535.23" r="10.5"/>
		<circle fill="#D82534" cx="349.143" cy="344.133" r="10.5"/>
		<circle fill="#018C8B" cx="355.898" cy="295.439" r="6.755"/>
		<circle fill="#018C8B" cx="472.402" cy="223.312" r="6.755"/>
		<circle fill="#018C8B" cx="758.748" cy="187.093" r="6.755"/>
		<circle fill="#018C8B" cx="692.805" cy="524.73" r="6.755"/>
		<circle fill="#018C8B" cx="568.456" cy="581.795" r="6.755"/>
		<circle fill="#018C8B" cx="349.143" cy="386.935" r="6.755"/>
		<circle fill="#F05E22" cx="474.332" cy="319.479" r="2.68"/>
		<circle fill="#F05E22" cx="729.115" cy="515.296" r="2.68"/>
		<circle fill="#F05E22" cx="765.502" cy="450.334" r="2.68"/>
		<circle fill="#F05E22" cx="669.535" cy="501.686" r="2.68"/>
		<circle fill="#F05E22" cx="750.115" cy="423.966" r="2.68"/>
		<circle fill="#F05E22" cx="745.146" cy="207.331" r="2.68"/>
		<circle fill="#F05E22" cx="690.125" cy="107.629" r="2.68"/>
		<circle fill="#F05E22" cx="487.455" cy="234.634" r="2.68"/>
		<circle fill="#F05E22" cx="335.882" cy="324.839" r="2.68"/>
		<circle fill="#F05E22" cx="326.123" cy="277.36" r="2.68"/>
		<circle fill="#F05E22" cx="349.143" cy="231.954" r="2.68"/>
		<circle fill="#D82534" cx="433.5" cy="92.827" r="2.68"/>
		<circle fill="#F1CB15" cx="447.931" cy="73.573" r="2.68"/>
		<circle fill="#018C8B" cx="315.623" cy="341.994" r="2.977"/>
	</g>
</g>
</svg>
