<?xml version="1.0" encoding="utf-8"?>
<!-- Generator: Adobe Illustrator 16.0.4, SVG Export Plug-In . SVG Version: 6.00 Build 0)  -->
<!DOCTYPE svg PUBLIC "-//W3C//DTD SVG 1.1//EN" "http://www.w3.org/Graphics/SVG/1.1/DTD/svg11.dtd">
<svg version="1.1" xmlns="http://www.w3.org/2000/svg" xmlns:xlink="http://www.w3.org/1999/xlink" x="0px" y="0px" width="800px"
	 height="146.993px" viewBox="0 0 800 146.993" enable-background="new 0 0 800 146.993" xml:space="preserve">
<g id="Background">
</g>
<g id="Objects">
	<g>
		<g>
			<path fill="#00AEEF" d="M181.472,133.557c-20.239,0-30.012-11.993-30.418-12.504c-1.041-1.309-1.158-3.125-0.295-4.556
				c0.059-0.098,0.121-0.191,0.186-0.281c-17.553-5.928-28.437-21.112-28.971-21.87c-0.823-1.168-0.961-2.687-0.361-3.982
				c0.197-0.427,0.463-0.808,0.783-1.131l-0.3,0.026c-0.118,0.011-0.236,0.016-0.354,0.016c-0.36,0-0.719-0.049-1.067-0.145
				c-12.006-3.323-26.421-21.011-28.025-23.017c-0.931-1.164-1.137-2.75-0.535-4.113c0.602-1.364,1.913-2.28,3.401-2.376
				l21.058-1.363c-6.595,0.246-13.686,0.497-21.158,0.745c-0.205,0.007-0.408,0.01-0.613,0.01c-17.157,0-35.443-23.779-37.472-26.49
				c-0.89-1.189-1.047-2.772-0.41-4.113c0.638-1.342,1.965-2.219,3.449-2.28c1.116-0.045,111.729-4.581,125.108-4.877
				c0.608-0.014,1.227-0.021,1.856-0.021c21.272,0,36.564,8.656,45.452,25.73c0.9,1.728,1.677,3.411,2.346,5.048
				c0.033-0.063,0.067-0.126,0.104-0.188c0.612-1.039,1.66-1.748,2.853-1.927c3.984-0.6,9.334-0.917,15.472-0.917
				c8.792,0,26.941,0.833,32.699,3.984c4.749,2.6,8.587,6.998,10.228,9.062l10.847,3.379c0.551,0.172,1.058,0.461,1.487,0.847
				c7.465,6.721,10.863,17.459,11.004,17.913c0.438,1.411,0.063,2.948-0.976,3.999c-0.762,0.771-1.792,1.188-2.845,1.188
				c-0.382,0-0.767-0.055-1.144-0.167c-2.752-0.821-6.787-1.256-11.669-1.256c-11.567,0-25.703,2.464-36.892,6.43
				c-7.563,2.681-14.085,7.219-21.638,12.475c-9.917,6.901-22.26,15.49-41.233,22.479
				C195.787,132.129,188.399,133.557,181.472,133.557z"/>
			<path fill="#FFFFFF" d="M187.333,25.235c13.365,0,31.445,3.484,41.904,23.577c10.928,20.993,2.337,34.518,2.337,34.518
				c15.63-6.693,7.108-29.476,7.108-29.476c3.998-0.602,9.292-0.872,14.877-0.872c12.728,0,26.963,1.404,30.778,3.493
				c5.491,3.006,9.742,8.994,9.742,8.994l12.063,3.758c6.733,6.062,9.86,16.127,9.86,16.127c-3.164-0.944-7.614-1.423-12.813-1.423
				c-11.093,0-25.589,2.18-38.228,6.659c-18.563,6.579-30.203,22.921-62.917,34.971c-7.863,2.896-14.708,3.996-20.574,3.996
				c-18.542,0-27.288-10.994-27.288-10.994c2.034,0.384,4.187,0.55,6.392,0.55c14.175,0,30.466-6.864,30.466-6.864
				c-6.868,1.95-15.899,2.351-22.16,2.351c-4.363,0-7.379-0.194-7.379-0.194c-21.846-1.912-36.26-22.363-36.26-22.363l62.37-5.689
				c1.75-2.342,1.104-7.039,1.104-7.039l-66.977,5.962c-11.104-3.073-25.968-21.659-25.968-21.659l82.622-5.348
				c-5.443-5.261-12.944-6.082-12.944-6.082s-29.088,1.461-70.168,2.822c-0.161,0.005-0.32,0.008-0.481,0.008
				c-15.649,0-34.269-24.887-34.269-24.887s111.537-4.576,125.033-4.875C186.145,25.242,186.734,25.235,187.333,25.235
				 M287.227,68.149c0,0-1.732-2.639-3.045-3.029c-1.312-0.391-6.113-0.438-6.113-0.438s1.342,1.804,3.147,2.609
				C283.02,68.096,287.227,68.149,287.227,68.149 M187.333,17.235L187.333,17.235c-0.659,0-1.308,0.008-1.945,0.021
				c-13.417,0.297-120.626,4.692-125.184,4.88c-2.967,0.122-5.622,1.877-6.897,4.559s-0.959,5.85,0.819,8.228
				c0.208,0.276,5.153,6.854,12.189,13.477c7.638,7.188,14.88,11.75,21.616,13.631c-0.464,2.293,0.096,4.71,1.593,6.582
				c2.586,3.233,15.439,18.742,27.72,23.578c0.029,1.573,0.522,3.13,1.459,4.46c0.534,0.759,10.749,15.01,27.48,22.041
				c0.028,1.727,0.613,3.438,1.738,4.853c0.455,0.572,11.402,14.014,33.548,14.014c7.401,0,15.253-1.511,23.34-4.489
				c19.454-7.166,32.03-15.917,42.135-22.949c7.315-5.091,13.632-9.487,20.688-11.988c10.789-3.823,24.413-6.199,35.556-6.199
				c5.984,0,9.163,0.683,10.525,1.089c0.753,0.225,1.523,0.334,2.287,0.334c2.107,0,4.165-0.833,5.689-2.375
				c2.078-2.102,2.828-5.177,1.951-7.999c-0.387-1.245-4.014-12.376-12.147-19.698c-0.857-0.772-1.872-1.35-2.974-1.692l-9.694-3.02
				c-2.118-2.525-5.933-6.53-10.65-9.112c-7.947-4.35-31.913-4.476-34.62-4.476c-4.417,0-10.789,0.167-16.067,0.961
				c-0.227,0.034-0.45,0.078-0.671,0.131c-0.159-0.317-0.321-0.636-0.488-0.955c-5.527-10.618-13.491-18.33-23.669-22.922
				C205.264,18.858,196.978,17.235,187.333,17.235L187.333,17.235z"/>
		</g>
	</g>
	<text transform="matrix(1 0 0 1 334.6348 108.6909)"><tspan x="0" y="0" fill="#FFFFFF" font-family="'Molot'" font-size="101.4055">M</tspan><tspan x="80.414" y="0" fill="#FFFFFF" font-family="'Molot'" font-size="77.8123">ail</tspan><tspan x="188.26" y="0" fill="#FFFFFF" font-family="'Molot'" font-size="101.4055">B</tspan><tspan x="248.595" y="0" fill="#FFFFFF" font-family="'Molot'" font-size="77.8123">ird</tspan></text>
</g>
</svg>
